<?xml version="1.0" encoding="UTF-8"?>
<svg version="1.1" xmlns="http://www.w3.org/2000/svg" width="256" height="256">
<path d="M0 0 C84.48 0 168.96 0 256 0 C256 84.48 256 168.96 256 256 C171.52 256 87.04 256 0 256 C0 171.52 0 87.04 0 0 Z " fill="#141033" transform="translate(0,0)"/>
<path d="M0 0 C7.30365688 1.38559836 14.50939201 3.05385315 21.71875 4.86328125 C23.3647821 5.27407173 23.3647821 5.27407173 25.04406738 5.69316101 C27.35714144 6.27109097 29.66992199 6.85019679 31.98242188 7.43041992 C35.46137572 8.30281444 38.94154318 9.17023069 42.421875 10.03710938 C53.0047294 12.6814996 63.56049141 15.38143643 74.05810547 18.34724426 C80.16742478 20.06790528 86.31648377 21.56893424 92.5 23 C100.42690307 24.86656495 108.28531388 26.86270546 116.11328125 29.10546875 C122.53282223 30.92144701 129.00749092 32.46823438 135.5 34 C143.42018697 35.86859501 151.27405331 37.85772591 159.09570312 40.10107422 C166.72122648 42.25979559 174.43046498 44.06198782 182.1484375 45.85742188 C188.51004943 47.34970231 194.76619925 49.03986962 201 51 C201 51.66 201 52.32 201 53 C200.01008057 53.21092285 199.02016113 53.4218457 198.00024414 53.63916016 C187.41221467 55.89839143 176.83131597 58.18922254 166.25585938 60.5065918 C164.26354745 60.94235612 162.27050012 61.37475522 160.27734375 61.80664062 C137.61327376 66.75673533 114.66519966 73.28922945 94 84 C92.63831838 84.66863217 91.2749464 85.33382973 89.91015625 85.99609375 C83.01252151 89.36059963 76.30132959 92.8384747 69.8203125 96.96875 C68 98 68 98 66 98 C66.18175781 97.47792969 66.36351563 96.95585937 66.55078125 96.41796875 C67.39251068 93.9532123 68.19490042 91.47695052 69 89 C69.28617187 88.19175781 69.57234375 87.38351563 69.8671875 86.55078125 C73.42829204 75.47744191 73.9390428 61.72900684 69 51 C55.36851268 24.46082115 25.41210353 13.46463307 0 1 C0 0.67 0 0.34 0 0 Z " fill="#1D8AFB" transform="translate(26,82)"/>
<path d="M0 0 C7.30365688 1.38559836 14.50939201 3.05385315 21.71875 4.86328125 C23.3647821 5.27407173 23.3647821 5.27407173 25.04406738 5.69316101 C27.35714144 6.27109097 29.66992199 6.85019679 31.98242188 7.43041992 C35.46137572 8.30281444 38.94154318 9.17023069 42.421875 10.03710938 C53.0047294 12.6814996 63.56049141 15.38143643 74.05810547 18.34724426 C80.16742478 20.06790528 86.31648377 21.56893424 92.5 23 C100.42690307 24.86656495 108.28531388 26.86270546 116.11328125 29.10546875 C123.6042966 31.22454877 131.17718963 32.98029173 138.75292969 34.76733398 C145.67094487 36.41028343 152.51974779 38.20903999 159.35498047 40.16479492 C168.49186711 42.75235281 177.74969703 44.86140037 187 47 C185 49 185 49 182.6784668 49.26123047 C174.59394108 49.20844793 166.80255596 48.308944 158.8125 47.125 C113.03604466 39.75175177 113.03604466 39.75175177 69 50 C68.48953125 49.17757812 67.9790625 48.35515625 67.453125 47.5078125 C52.32389299 23.95257663 24.31832697 12.92382484 0 1 C0 0.67 0 0.34 0 0 Z " fill="#5AA7FB" transform="translate(26,82)"/>
<path d="M0 0 C0 0.66 0 1.32 0 2 C-1.66611905 2.042721 -3.33382885 2.04063832 -5 2 C-5.33 1.67 -5.66 1.34 -6 1 C-7.48437809 0.77376479 -8.97777425 0.60587035 -10.47265625 0.46484375 C-11.37177734 0.37783203 -12.27089844 0.29082031 -13.19726562 0.20117188 C-14.14279297 0.11416016 -15.08832031 0.02714844 -16.0625 -0.0625 C-17.01189453 -0.15337891 -17.96128906 -0.24425781 -18.93945312 -0.33789062 C-21.29262135 -0.56256498 -23.64610619 -0.78308182 -26 -1 C-26 -1.33 -26 -1.66 -26 -2 C-16.40142256 -3.06229316 -9.23739347 -3.06696068 0 0 Z " fill="#28C0F6" transform="translate(227,133)"/>
<path d="M0 0 C4.95 0.99 4.95 0.99 10 2 C9.01 3.485 9.01 3.485 8 5 C5.36 3.68 2.72 2.36 0 1 C0 0.67 0 0.34 0 0 Z " fill="#5575D0" transform="translate(26,82)"/>
</svg>
